<svg xmlns="http://www.w3.org/2000/svg" fill="none" viewBox="0 0 200 43">
  <path class="curColor" stroke="currentColor" stroke-linecap="round" stroke-linejoin="round" stroke-width="1.5" d="M1 38.602c11.246 3.197 22.182-.99 31.508-7.172 4.932-3.27 9.826-7.183 12.825-12.341 1.195-2.057 2.656-5.626-1.106-5.658-4.093-.034-7.14 3.662-8.668 7.022-2.19 4.819-2.268 10.526.407 15.17 2.531 4.395 6.778 6.474 11.845 5.62 5.293-.893 9.92-4.508 13.765-7.986a40.714 40.714 0 0 0 3.966-4.093c.142-.17.642-1.006.966-1.064.12-.021.298 3.643.33 3.843.288 1.79 1.191 3.806 3.305 3.867 2.69.078 4.94-2.172 6.75-3.83.61-.559 2.55-3.241 3.583-3.241.425 0 1.249 2.143 1.437 2.428 2.484 3.764 6.132 2.401 8.96-.238.52-.485 3.305-4.367 4.436-3.667.911.563 1.313 1.893 1.78 2.778.76 1.441 1.722 2.468 3.33 3.004 3.493 1.166 7.261-2.102 10.803-2.102 1.033 0 1.561.568 2.11 1.351.749 1.068 1.521 1.813 2.873 2.103 4.188.898 7.617-3.077 11.667-2.728 1.181.101 2.063 1.292 2.949 1.927 1.788 1.28 3.938 2.167 6.127 2.478 3.509.499 7.027-.162 10.447-.9 5.905-1.277 11.752-2.799 17.667-4.031"/>
  <g class="curColor" fill="currentColor" clip-path="url(#a)">
    <path class="curColor" d="M196.514 17.657 184.491 3.13a.665.665 0 0 0-.938-.089l-2.905 2.405a.666.666 0 0 0-.089.938l12.023 14.526a.664.664 0 0 0 .451.239.666.666 0 0 0 .488-.15l2.905-2.405a.666.666 0 0 0 .088-.938zm-15.077-8.121-10.582 2.869a.666.666 0 0 0-.472.48l-4.228 16.795 7.82-6.472a3.34 3.34 0 0 1 .815-4.137 3.337 3.337 0 0 1 4.693.442 3.338 3.338 0 0 1-.442 4.694 3.322 3.322 0 0 1-2.438.75 3.335 3.335 0 0 1-1.778-.721l-7.82 6.471 17.289-1.014a.668.668 0 0 0 .561-.374l4.796-9.859-8.214-9.924z"/>
  </g>
  <defs>
    <clipPath id="a">
      <path fill="#fff" d="M167.573 0h32v32h-32z" transform="rotate(5.386 167.573 0)"/>
    </clipPath>
  </defs>
</svg>