<svg width="512" height="512" viewBox="0 0 512 512" fill="none" xmlns="http://www.w3.org/2000/svg">
<rect x="0.25" y="0.25" width="511.5" height="511.5" rx="49.75" fill="#F0F8FF" stroke="#959595" stroke-width="0.5"/>
<path d="M454.991 69.6231C451.492 64.8116 446.678 61.3132 440.552 60.4377C439.238 60 437.49 60 436.176 60C409.486 60 401.173 102.866 390.232 162.791C389.356 168.478 388.043 175.037 386.732 180.724C380.168 213.529 376.668 238.025 375.793 257.271C371.417 259.021 368.355 263.395 367.042 269.079C366.166 273.89 367.042 278.702 369.666 282.201L352.602 319.817L371.856 347.811C370.542 346.936 369.666 346.06 368.356 345.188C358.729 337.753 350.416 330.754 342.976 331.191C340.787 321.568 335.977 315.009 328.974 312.383C317.162 307.571 302.284 314.571 290.03 322.881C297.03 303.634 295.281 297.511 289.592 294.012C286.53 292.261 280.841 288.763 261.588 308.884C265.088 295.325 262.901 290.513 258.526 287.89C255.464 286.14 249.337 283.079 229.208 305.823C240.148 272.58 237.083 269.082 234.46 266.021C232.708 263.833 229.646 262.522 226.585 263.398C220.458 264.711 209.959 278.27 199.894 294.015C200.77 290.079 201.645 285.705 202.083 281.769C210.834 229.28 202.083 187.726 177.141 161.481C166.639 150.107 157.012 150.545 151.326 152.733C133.825 158.857 121.136 192.535 112.382 231.468C104.507 227.97 95.3182 224.906 85.6915 221.407C77.8165 218.784 69.5029 215.72 61.187 212.66C57.6872 211.347 53.7492 213.097 52.4361 216.596C51.1226 220.094 52.874 224.031 56.3738 225.343C65.1246 228.842 73.4375 231.468 81.3162 234.529C91.8181 238.027 101.445 241.526 109.758 245.027C100.569 290.078 95.756 338.194 94.4421 353.94C94.0043 357 95.7556 359.627 98.8175 360.937C101.442 361.812 104.944 360.937 106.692 358.748C142.134 312.384 154.388 283.953 147.823 262.962C144.323 252.026 136.445 244.153 125.07 238.028C133.383 200.412 143.886 170.233 156.136 166.296C157.45 165.859 160.95 164.546 167.949 171.983C221.33 228.408 170.573 347.818 170.138 349.132C170.138 349.57 169.701 349.57 169.701 350.007C168.825 353.506 170.576 357.004 173.638 358.317C177.138 359.63 180.638 357.879 181.951 354.819C181.951 354.381 182.827 353.068 183.702 350.882C188.954 339.509 208.645 305.831 221.333 288.336C218.709 297.959 213.458 314.579 202.517 342.135C201.204 345.196 202.517 348.697 205.579 350.445C208.641 352.195 212.144 351.32 214.33 348.256C226.143 332.074 240.583 314.138 249.333 305.828C248.02 311.515 244.52 322.01 237.083 339.946C235.769 343.007 237.083 346.508 239.707 348.256C242.769 350.006 246.272 349.131 248.458 346.505C258.96 332.946 272.086 318.511 279.961 311.514C278.648 317.201 275.148 326.824 267.711 343.444C266.397 346.505 267.273 350.006 269.9 351.754C272.524 353.505 276.026 353.505 278.213 350.878C291.339 338.194 313.654 322.447 323.281 326.383C328.97 328.571 329.845 339.505 330.28 345.629C330.28 349.128 332.904 351.754 336.407 352.192C339.907 352.629 342.972 350.441 343.845 347.38V346.943C347.345 347.818 354.785 353.939 359.598 357.878C366.163 363.127 372.725 368.376 378.414 370.562C379.29 371 380.165 371 380.603 371C383.227 371 385.854 369.249 386.73 366.626C387.606 364.875 387.168 362.69 386.292 360.939L423.923 336.006L422.609 294.891C426.109 292.703 428.736 288.767 430.047 283.518C430.922 280.019 430.485 276.083 428.733 272.582C428.295 271.269 427.42 269.959 426.109 269.083C432.236 251.15 438.798 227.093 444.925 193.85C446.238 187.726 447.114 181.604 448.424 175.917C459.367 123.869 466.805 87.1279 454.992 69.6312L454.991 69.6231ZM134.693 265.144C138.631 278.266 130.756 298.825 109.751 329.003C112.375 303.633 116.75 275.642 121.564 249.83C128.131 254.204 132.944 259.016 134.693 265.14V265.144ZM393.292 338.626L397.668 315.007C398.543 311.508 395.916 308.01 392.417 307.135C389.355 306.697 385.852 309.323 384.979 312.821L380.603 336.441L368.353 318.508L382.354 288.329L410.796 293.578L412.109 327.259L393.292 338.626ZM417.797 278.703C417.797 279.578 417.359 280.453 416.921 280.891L398.543 277.39L380.166 273.891C379.728 273.454 379.728 273.016 380.166 271.703C380.166 270.828 380.604 269.952 381.041 269.515L417.797 276.512C417.797 276.952 418.235 277.827 417.797 278.703ZM436.174 171.541C434.861 177.228 433.985 183.787 432.675 189.474C426.548 221.841 420.424 245.023 414.297 262.519L389.355 258.145C390.23 239.774 393.292 215.716 399.856 183.35C401.17 177.225 402.046 171.104 403.356 165.417C412.107 118.177 420.858 73.125 436.612 73.125H438.801C441.425 73.5627 443.176 74.8757 444.49 76.6235C452.8 89.7482 444.925 129.55 436.174 171.542L436.174 171.541Z" fill="#485FC7"/>
</svg>
